<svg width="500" height="1000" viewBox="0 0 500 1000" fill="none" xmlns="http://www.w3.org/2000/svg">
<g clip-path="url(#clip0_25_132)">
<g clip-path="url(#clip1_25_132)">
<path d="M521.24 976.74V977.01L369.67 976.74H521.24Z" fill="url(#paint0_linear_25_132)"/>
<path d="M682.28 976.74L748.6 850.63H782.18V800.21H563L526.3 213H551C557.686 213 564.098 210.344 568.826 205.616C573.554 200.888 576.21 194.476 576.21 187.79C576.21 181.104 573.554 174.692 568.826 169.964C564.098 165.236 557.686 162.58 551 162.58H528.9L528.61 162.81L528.43 162.58H478.85C462.8 148.86 453.7 128.22 453.85 105.88C454.07 76.23 470.18 46.88 499.23 23.1C499.911 22.5458 500.734 22.1931 501.605 22.0818C502.476 21.9705 503.361 22.1049 504.16 22.47C504.959 22.8351 505.64 23.4162 506.126 24.1478C506.611 24.8793 506.883 25.7322 506.91 26.61C507.26 39.8 513.41 52.36 518.5 60.61C521.76 65.86 525.43 70.94 528.98 75.87C534.93 84.12 541.09 92.65 545.29 101.99C548.01 108.07 549.42 113.47 549.57 118.5C549.609 124.051 548.52 129.552 546.37 134.67C542.323 144.889 535.555 153.805 526.8 160.45L528.44 162.6H528.91C537.964 155.658 544.963 146.389 549.16 135.78C551.46 130.28 552.62 124.371 552.57 118.41C552.4 112.98 550.92 107.21 548.02 100.77C543.7 91.14 537.45 82.48 531.41 74.11C527.89 69.23 524.25 64.19 521.05 59.02C516.15 51.12 510.24 39.07 509.91 26.55C509.87 25.1104 509.427 23.7107 508.632 22.5097C507.838 21.3086 506.722 20.3543 505.413 19.7547C504.103 19.1551 502.652 18.9343 501.223 19.1173C499.795 19.3003 498.446 19.8798 497.33 20.79C467.58 45.1 451.07 75.32 450.85 105.88C450.69 127.88 459.2 148.35 474.34 162.6H447C443.631 162.505 440.277 163.087 437.137 164.31C433.996 165.534 431.133 167.375 428.717 169.725C426.3 172.074 424.379 174.884 423.068 177.989C421.756 181.093 421.08 184.43 421.08 187.8C421.08 191.17 421.756 194.507 423.068 197.611C424.379 200.716 426.3 203.526 428.717 205.875C431.133 208.225 433.996 210.066 437.137 211.29C440.277 212.513 443.631 213.095 447 213H468L431.31 800.21H229.53V850.63H262.93L327.71 976.74H167V979.74H368.14L679.5 980.3H680.41L680.7 979.74H832.18V976.74H682.28ZM447 210C441.11 210 435.46 207.66 431.295 203.495C427.13 199.33 424.79 193.68 424.79 187.79C424.79 181.9 427.13 176.25 431.295 172.085C435.46 167.92 441.11 165.58 447 165.58H551C556.89 165.58 562.54 167.92 566.705 172.085C570.87 176.25 573.21 181.9 573.21 187.79C573.21 193.68 570.87 199.33 566.705 203.495C562.54 207.66 556.89 210 551 210H447ZM471 213H523.27L560 800.21H434.31L471 213ZM232.53 847.63V803.21H779.18V847.63H232.53ZM678.89 976.74H524.24V937.67C524.24 930.984 521.584 924.572 516.856 919.844C512.128 915.116 505.716 912.46 499.03 912.46C492.344 912.46 485.932 915.116 481.204 919.844C476.476 924.572 473.82 930.984 473.82 937.67V975.05H476.82V937.67C476.82 931.78 479.16 926.13 483.325 921.965C487.49 917.8 493.14 915.46 499.03 915.46C504.92 915.46 510.57 917.8 514.735 921.965C518.9 926.13 521.24 931.78 521.24 937.67V977L369.67 976.73L331.05 976.66L266.31 850.66H745.21L678.89 976.74Z" fill="url(#paint1_linear_25_132)"/>
</g>
</g>
<defs>
<linearGradient id="paint0_linear_25_132" x1="445.455" y1="976.74" x2="445.455" y2="977.01" gradientUnits="userSpaceOnUse">
<stop stop-color="#D82727"/>
<stop offset="1" stop-color="#D82727" stop-opacity="0.3"/>
</linearGradient>
<linearGradient id="paint1_linear_25_132" x1="499.59" y1="19.0548" x2="499.59" y2="980.3" gradientUnits="userSpaceOnUse">
<stop stop-color="#D82727"/>
<stop offset="1" stop-color="#D82727" stop-opacity="0.3"/>
</linearGradient>
<clipPath id="clip0_25_132">
<rect width="500" height="1000" fill="white"/>
</clipPath>
<clipPath id="clip1_25_132">
<rect width="665.18" height="961.3" fill="white" transform="translate(167 19)"/>
</clipPath>
</defs>
</svg>
