<svg width="500" height="1000" viewBox="0 0 500 1000" fill="none" xmlns="http://www.w3.org/2000/svg">
<g clip-path="url(#clip0_25_124)">
<g clip-path="url(#clip1_25_124)">
<path d="M28.46 162.55L28.64 162.78L28.93 162.55H28.46Z" fill="url(#paint0_linear_25_124)"/>
<path d="M28.93 162.55L28.64 162.78L28.46 162.55H28.93Z" fill="url(#paint1_linear_25_124)"/>
<path d="M21.2399 976.74V977.01L-130.33 976.74H21.2399Z" fill="url(#paint2_linear_25_124)"/>
<path d="M182.28 976.74L248.6 850.63H282.18V800.21H63L26.3 213H51C57.6861 213 64.0984 210.344 68.8262 205.616C73.554 200.888 76.21 194.476 76.21 187.79C76.21 181.104 73.554 174.692 68.8262 169.964C64.0984 165.236 57.6861 162.58 51 162.58H28.9L28.61 162.81L28.43 162.58H-21.15C-37.2 148.86 -46.3 128.22 -46.15 105.88C-45.93 76.23 -29.82 46.88 -0.769989 23.1C-0.0886875 22.5458 0.734 22.1931 1.60516 22.0818C2.47633 21.9705 3.36126 22.1049 4.16003 22.47C4.95881 22.8351 5.63961 23.4162 6.12555 24.1478C6.61148 24.8793 6.88319 25.7322 6.91 26.61C7.26 39.8 13.41 52.36 18.5 60.61C21.76 65.86 25.43 70.94 28.98 75.87C34.93 84.12 41.09 92.65 45.29 101.99C48.01 108.07 49.42 113.47 49.57 118.5C49.609 124.051 48.5203 129.552 46.37 134.67C42.3228 144.889 35.5548 153.805 26.8 160.45L28.44 162.6H28.91C37.9639 155.658 44.9629 146.389 49.16 135.78C51.4603 130.28 52.6204 124.371 52.57 118.41C52.4 112.98 50.92 107.21 48.02 100.77C43.7 91.14 37.45 82.48 31.41 74.11C27.89 69.23 24.25 64.19 21.05 59.02C16.15 51.12 10.24 39.07 9.91 26.55C9.86988 25.1104 9.42731 23.7107 8.63245 22.5097C7.83758 21.3086 6.72221 20.3543 5.41272 19.7547C4.10322 19.1551 2.65195 18.9343 1.22339 19.1173C-0.205172 19.3003 -1.55392 19.8798 -2.67001 20.79C-32.42 45.1 -48.93 75.32 -49.15 105.88C-49.31 127.88 -40.8 148.35 -25.66 162.6H-53C-56.369 162.505 -59.7229 163.087 -62.8633 164.31C-66.0037 165.534 -68.8668 167.375 -71.2834 169.725C-73.6999 172.074 -75.6208 174.884 -76.9325 177.989C-78.2442 181.093 -78.92 184.43 -78.92 187.8C-78.92 191.17 -78.2442 194.507 -76.9325 197.611C-75.6208 200.716 -73.6999 203.526 -71.2834 205.875C-68.8668 208.225 -66.0037 210.066 -62.8633 211.29C-59.7229 212.513 -56.369 213.095 -53 213H-32L-68.69 800.21H-270.47V850.63H-237.07L-172.29 976.74H-333V979.74H-131.86L179.5 980.3H180.41L180.7 979.74H332.18V976.74H182.28ZM-53 210C-58.8905 210 -64.5397 207.66 -68.7048 203.495C-72.87 199.33 -75.21 193.68 -75.21 187.79C-75.21 181.9 -72.87 176.25 -68.7048 172.085C-64.5397 167.92 -58.8905 165.58 -53 165.58H51C56.8905 165.58 62.5397 167.92 66.7048 172.085C70.87 176.25 73.21 181.9 73.21 187.79C73.21 193.68 70.87 199.33 66.7048 203.495C62.5397 207.66 56.8905 210 51 210H-53ZM-29 213H23.27L60 800.21H-65.69L-29 213ZM-267.47 847.63V803.21H279.18V847.63H-267.47ZM178.89 976.74H24.24V937.67C24.24 930.984 21.584 924.572 16.8562 919.844C12.1284 915.116 5.71611 912.46 -0.970001 912.46C-7.65611 912.46 -14.0684 915.116 -18.7962 919.844C-23.524 924.572 -26.18 930.984 -26.18 937.67V975.05H-23.18V937.67C-23.18 931.78 -20.84 926.13 -16.6748 921.965C-12.5097 917.8 -6.86046 915.46 -0.970001 915.46C4.92046 915.46 10.5696 917.8 14.7348 921.965C18.9 926.13 21.24 931.78 21.24 937.67V977L-130.33 976.73L-168.95 976.66L-233.69 850.66H245.21L178.89 976.74Z" fill="url(#paint3_linear_25_124)"/>
</g>
</g>
<defs>
<linearGradient id="paint0_linear_25_124" x1="28.695" y1="162.55" x2="28.695" y2="162.78" gradientUnits="userSpaceOnUse">
<stop stop-color="#D82727"/>
<stop offset="1" stop-color="#D82727" stop-opacity="0.3"/>
</linearGradient>
<linearGradient id="paint1_linear_25_124" x1="28.695" y1="162.55" x2="28.695" y2="162.78" gradientUnits="userSpaceOnUse">
<stop stop-color="#D82727"/>
<stop offset="1" stop-color="#D82727" stop-opacity="0.3"/>
</linearGradient>
<linearGradient id="paint2_linear_25_124" x1="-54.5451" y1="976.74" x2="-54.5451" y2="977.01" gradientUnits="userSpaceOnUse">
<stop stop-color="#D82727"/>
<stop offset="1" stop-color="#D82727" stop-opacity="0.3"/>
</linearGradient>
<linearGradient id="paint3_linear_25_124" x1="-0.410004" y1="19.0548" x2="-0.410004" y2="980.3" gradientUnits="userSpaceOnUse">
<stop stop-color="#D82727"/>
<stop offset="1" stop-color="#D82727" stop-opacity="0.3"/>
</linearGradient>
<clipPath id="clip0_25_124">
<rect width="500" height="1000" fill="white"/>
</clipPath>
<clipPath id="clip1_25_124">
<rect width="665.18" height="961.3" fill="white" transform="translate(-333 19)"/>
</clipPath>
</defs>
</svg>
